<?xml version="1.0" encoding="utf-8"?>
<svg version="1.1" id="outlines" xmlns="http://www.w3.org/2000/svg" xmlns:xlink="http://www.w3.org/1999/xlink" x="0px" y="0px"
	 viewBox="0 0 274.3 91.2" style="enable-background:new 0 0 274.3 91.2;" xml:space="preserve">
<style type="text/css">.st0{fill:#FF6A00;}</style>
<g>
	<g>
		<path class="st0" d="M15,32.6h2.6c1.1,0,2-0.9,2-2v-9.1c0-1.1,0.9-2,2-2h15.6c1.1,0,2-0.9,2-2v-2.6c0-1.1-0.9-2-2-2H21.5
			c-1.1,0-2,0.9-2,2v2.6c0,1.1-0.9,2-2,2H15c-1.1,0-2,0.9-2,2v9.1C13,31.7,13.9,32.6,15,32.6z"/>
		<path class="st0" d="M63.1,0H47.5c-1.1,0-2,0.9-2,2v2.6c0,1.1,0.9,2,2,2h15.6c1.1,0,2-0.9,2-2V2C65.1,0.9,64.2,0,63.1,0z"/>
		<path class="st0" d="M76.1,13h-2.6c-1.1,0-2,0.9-2,2v9.1c0,1.1,0.9,2,2,2h2.6c1.1,0,2-0.9,2-2V15C78.1,13.9,77.2,13,76.1,13z"/>
		<path class="st0" d="M76.1,32.6h-2.6c-1.1,0-2,0.9-2,2v2.5c0,1.1,0.9,2,2,2h2.6c1.1,0,2-0.9,2-2v-2.6
			C78.1,33.4,77.2,32.6,76.1,32.6z"/>
		<path class="st0" d="M52.1,34.5c0-1.1-0.9-2-2-2h-2.6c-1.1,0-2,0.9-2,2v22.1c0,1.1-0.9,2-2,2h-9.1c-1.1,0-2-0.9-2-2V34.5
			c0-1.1,0.9-2,2-2H37c1.1,0,2-0.9,2-2v-2.6c0-1.1-0.9-2-2-2h-2.6c-1.1,0-2,0.9-2,2v2.6c0,1.1-0.9,2-2,2H28c-1.1,0-2,0.9-2,2v28.6
			c0,1.1,0.9,2,2,2h15.6c1.1,0,2-0.9,2-2v-2.6c0-1.1,0.9-2,2-2h2.6c1.1,0,2-0.9,2-2L52.1,34.5L52.1,34.5z"/>
		<path class="st0" d="M63.1,13H47.5c-1.1,0-2,0.9-2,2v2.6c0,1.1,0.9,2,2,2h9.1c1.1,0,2,0.9,2,2v15.5c0,1.1,0.9,2,2,2h2.6
			c1.1,0,2-0.9,2-2V15C65.1,13.9,64.2,13,63.1,13z"/>
		<path class="st0" d="M63.1,45.6h-2.6c-1.1,0-2,0.9-2,2v22.1c0,1.1-0.9,2-2,2H54c-1.1,0-2,0.9-2,2v2.6c0,1.1,0.9,2,2,2h2.6
			c1.1,0,2-0.9,2-2v-2.6c0-1.1,0.9-2,2-2h2.6c1.1,0,2-0.9,2-2V47.5C65.1,46.5,64.2,45.6,63.1,45.6z"/>
		<path class="st0" d="M43.6,71.6H21.5c-1.1,0-2-0.9-2-2V47.5c0-1.1-0.9-2-2-2H15c-1.1,0-2,0.9-2,2v22.1c0,1.1,0.9,2,2,2h2.6
			c1.1,0,2,0.9,2,2v2.6c0,1.1,0.9,2,2,2h22.1c1.1,0,2-0.9,2-2v-2.6C45.5,72.5,44.7,71.6,43.6,71.6z"/>
		<path class="st0" d="M30.6,84.6H15c-1.1,0-2,0.9-2,2v2.6c0,1.1,0.9,2,2,2h15.6c1.1,0,2-0.9,2-2v-2.6
			C32.5,85.5,31.7,84.6,30.6,84.6z"/>
		<path class="st0" d="M4.6,58.6H2c-1.1,0-2,0.9-2,2v9.1c0,1.1,0.9,2,2,2h2.6c1.1,0,2-0.9,2-2v-9.1C6.5,59.5,5.6,58.6,4.6,58.6z"/>
	</g>
	<g>
		<path class="st0" d="M103.1,55.2V34.5h-10v-8.4h10V14.6h9.5v11.5h11.9v8.4h-11.9v18.6c0,2.6,1,3.7,3.7,3.7h8.2v8.3h-11.4
			C106.3,65.1,103.1,62.3,103.1,55.2z"/>
		<path class="st0" d="M131.7,9.1h9.5v20c2.5-2.8,6.2-4.2,10.6-4.2c9.6,0,15.5,6.1,15.5,16.6v23.6h-9.5V42.5c0-6.1-2.9-9-7.9-9
			c-5.2,0-8.6,3.7-8.6,9.3v22.3h-9.5v-56H131.7z"/>
		<path class="st0" d="M172.1,26.1h9.9l7.6,28.4l7.6-28.4h11l7.6,28.4l7.6-28.4h9.9l-11.7,39h-11.3l-7.6-28.3l-7.6,28.3h-11.3
			L172.1,26.1z"/>
		<path class="st0" d="M236.3,53.7h9.8c0.3,3.3,3.1,4.9,7.9,4.9c4.3,0,7-1.8,7-4.7c0-2.5-1.9-3.8-5.4-4.1l-6.2-0.6
			c-7.3-0.8-11.8-5.1-11.8-11.8c0-7.8,6.2-12.6,16.2-12.6c9.8,0,16.1,4.2,16.6,12.3h-9.5c-0.2-3.1-2.9-4.6-7.2-4.6
			c-4.1,0-6.6,1.6-6.6,4.3c0,2.3,1.8,3.6,5.8,4.1l6.3,0.7c7.4,0.9,11.6,5.2,11.6,11.7c0,7.8-6.5,12.9-16.9,12.9
			C243.1,66.3,236.7,62,236.3,53.7z"/>
	</g>
</g>
</svg>